<svg xmlns="http://www.w3.org/2000/svg" viewBox="0 0 360 230"><rect width="360" height="230" fill="#f5f3ee"/><g fill="none" stroke="#c6c9c0" stroke-width="1.5"><path d="M20 55L75 25 133 44 191 20 247 49 330 32M16 114L69 93 125 112 183 78 243 108 344 85M25 185L87 154 140 178 199 147 256 168 339 150M75 25L69 93 87 154 72 216M133 44L125 112 140 178 153 220M191 20L183 78 199 147 186 217M247 49L243 108 256 168 279 214"/></g><circle cx="183" cy="113" r="72" fill="#b9886c" fill-opacity=".07" stroke="#b9886c" stroke-dasharray="4 5"/><circle cx="183" cy="113" r="39" fill="#b9886c" fill-opacity=".12" stroke="#b9886c"/><g fill="#7b8b91"><circle cx="125" cy="112" r="4"/><circle cx="199" cy="147" r="4"/><circle cx="183" cy="78" r="4"/><circle cx="243" cy="108" r="4"/><circle cx="140" cy="178" r="4"/></g><circle cx="183" cy="113" r="6" fill="#946548"/></svg>